<svg xmlns="http://www.w3.org/2000/svg" viewBox="0 0 78.63 105.27"><defs><style>.cls-1{fill:#fff;}</style></defs><g id="Camada_2" data-name="Camada 2"><g id="Camada_1-2" data-name="Camada 1"><path class="cls-1" d="M74.08,8.88H56.81V4.4L52.41,0H24.83L21.3,3.53V8.88H4l-4,4v87.86l4.51,4.51h69.1l5-5V13.43ZM27,5.71H51.1V17.76H27ZM72.93,99.56H5.71v-85H21.3v4.12l4.76,4.75H51.94l4.87-4.87v-4H72.93Z"/><rect class="cls-1" x="29.35" y="77.44" width="36.15" height="5.71"/><rect class="cls-1" x="29.35" y="38.76" width="36.15" height="5.71"/><rect class="cls-1" x="29.35" y="57.78" width="36.15" height="5.71"/><path class="cls-1" d="M18.89,33.72a7.93,7.93,0,1,0,7.93,7.93A7.94,7.94,0,0,0,18.89,33.72Zm0,10.78a2.85,2.85,0,1,1,2.85-2.85A2.84,2.84,0,0,1,18.89,44.5Z"/><path class="cls-1" d="M18.26,53.38a7.93,7.93,0,1,0,7.92,7.93A7.93,7.93,0,0,0,18.26,53.38Zm0,10.78a2.86,2.86,0,1,1,2.85-2.85A2.85,2.85,0,0,1,18.26,64.16Z"/><path class="cls-1" d="M18.26,72.41a7.93,7.93,0,1,0,7.92,7.92A7.93,7.93,0,0,0,18.26,72.41Zm0,10.78a2.86,2.86,0,1,1,2.85-2.86A2.86,2.86,0,0,1,18.26,83.19Z"/></g></g></svg>