<svg xmlns="http://www.w3.org/2000/svg" viewBox="0 0 87.28 84.61"><defs><style>.cls-1{fill:#ef7a27;}</style></defs><g id="Camada_2" data-name="Camada 2"><g id="Camada_4" data-name="Camada 4"><g id="Logo_-_conecta" data-name="Logo - conecta"><path id="Caminho_2083" data-name="Caminho 2083" class="cls-1" d="M31.54,8h3c1.19,0,1.67.45,1.67,1.62,0,2.05,0,4.1,0,6.15a1.4,1.4,0,0,1-1.15,1.61,1.29,1.29,0,0,1-.34,0c-2.12.06-4.24,0-6.37,0a1.4,1.4,0,0,1-1.54-1.24.92.92,0,0,1,0-.33c0-2.09-.06-4.18,0-6.26C26.85,8.4,27.4,8,28.58,8Z"/><path id="Caminho_2084" data-name="Caminho 2084" class="cls-1" d="M12.3,56.84c-.59,0-1.18,0-1.76,0-1.09.1-1.43-.45-1.39-1.44s0-2.06,0-3.08A2.65,2.65,0,0,0,6.7,49.49a2.54,2.54,0,0,0-.39,0c-.33,0-.66,0-1,0-1,.08-1.44-.37-1.44-1.42,0-2.5,0-2.43,2.53-2.52,1.15,0,1.58.28,1.41,1.43a3.13,3.13,0,0,0,1.12,3.13,2.77,2.77,0,0,0,1.87.74c1.14,0,2.28,0,3.41,0,.83,0,1.22.35,1.21,1.17q0,1.81,0,3.63c0,.88-.38,1.27-1.27,1.21C13.54,56.81,12.92,56.84,12.3,56.84Z"/><path id="Caminho_2085" data-name="Caminho 2085" class="cls-1" d="M18.28,22.46c2.78,0,2.8,0,2.78,2.74,0,3.56.38,2.95-3,3-2.83,0-2.73.16-2.7-2.75C15.34,22.05,14.91,22.49,18.28,22.46Z"/><path id="Caminho_2086" data-name="Caminho 2086" class="cls-1" d="M4.23,27.52c-.33,0-.66,0-1,0-.68,0-1-.28-1.07-.94-.32-2.89.6-3.72,3.46-3.16a.75.75,0,0,1,.69.73c0,.4,0,.8,0,1.2C6.34,27.52,6.34,27.52,4.23,27.52Z"/><path id="Caminho_2087" data-name="Caminho 2087" class="cls-1" d="M40.81,2.9c0,2.26.29,2.15-2.09,2.14-1.87,0-1.89,0-1.87-1.95C36.88.9,36.38.94,38.92.94,40.81.94,40.81.94,40.81,2.9Z"/><path id="Caminho_2088" data-name="Caminho 2088" class="cls-1" d="M7.81,61.31c0,.36,0,.73,0,1.09,0,.7-.32,1-1,1-3.59,0-2.93.5-3.05-2.84,0-1,.35-1.41,1.32-1.32.22,0,.44,0,.66,0C7.81,59.24,7.81,59.24,7.81,61.31Z"/><path id="Caminho_2089" data-name="Caminho 2089" class="cls-1" d="M3.58,14.44C3.58,16,3.58,16,2.05,16c-1.7,0-1.7,0-1.7-1.64s0-1.52,1.75-1.52C3.58,12.82,3.58,12.82,3.58,14.44Z"/><path id="Caminho_2090" data-name="Caminho 2090" class="cls-1" d="M61.29,11c0,1.6,0,1.6-1.49,1.6s-1.54,0-1.53-1.64,0-1.55,1.51-1.55S61.29,9.36,61.29,11Z"/><path id="Caminho_2091" data-name="Caminho 2091" class="cls-1" d="M20.3,1.59C20.36-.18,20,0,22.23,0c1.25,0,1.25,0,1.24,1.76,0,1.41,0,1.41-1.76,1.4C20.3,3.16,20.3,3.16,20.3,1.59Z"/><path id="Caminho_2092" data-name="Caminho 2092" class="cls-1" d="M52,3.91c0,1.43,0,1.43-1.57,1.43S49,5.34,49,3.84s0-1.54,1.59-1.53C52.35,2.32,52,2.23,52,3.91Z"/><path id="Caminho_2093" data-name="Caminho 2093" class="cls-1" d="M1.42,44.24C.29,44.53,0,44,0,42.94s.44-1.32,1.47-1.35,1.39.3,1.41,1.39S2.48,44.48,1.42,44.24Z"/><path id="Caminho_2098" data-name="Caminho 2098" class="cls-1" d="M71.21,60.75a18.51,18.51,0,1,1-.81-20.33H86.94a32.35,32.35,0,0,0-5.58-10.1,34,34,0,0,0-21.28-12.4,3,3,0,0,1-2.77-3.26c0-.94-.44-1.41-1.4-1.4-1.68,0-3.37,0-5,0a2.37,2.37,0,0,1-1.52-.49c-1.36-1-2.44-2.17-2.15-4.07a10.1,10.1,0,0,0,0-1.65.92.92,0,0,0-.8-1H43c-.63,0-.92.33-.9,1,0,.88,0,1.76,0,2.64,0,1.63,0,1.67,1.64,1.62s3.27-.08,4.49,1.52c1.1,1.43,1.29,5,.13,6.35a5,5,0,0,1-4.1,1.65c-2.75,0-5.5,0-8.25,0H27.66a3.84,3.84,0,0,1-2.92-1.2q-3-3.07-6-6.05a3.77,3.77,0,0,1-1.21-3c0-1.39,0-2.79,0-4.18s-.42-1.66-1.63-1.66c-1.76,0-3.52,0-5.28,0-1,0-1.49.38-1.48,1.43,0,1.83,0,3.66,0,5.5,0,1.25.36,1.58,1.65,1.6,1.54,0,3.08.07,4.62,0a3.14,3.14,0,0,1,2.39,1c1.71,1.7,3.47,3.35,5.14,5.08,1,1.07,2.27,2,2.15,3.81-.1,1.46,0,2.94,0,4.4s.71,2.19,2.24,2.19h2.53a1.22,1.22,0,0,1,1.32,1.09,1.27,1.27,0,0,1,0,.2c0,.8,0,1.61,0,2.41,0,1.55.22,1.82,1.76,1.81.94,0,1.42.25,1.31,1.32s.48,2.78-.22,3.5-2.37.14-3.6.27c-1,.1-1.29-.29-1.31-1.22,0-1.38-.18-1.47-1.57-1.47h-10a3.27,3.27,0,0,1-3.41-3.13,2.44,2.44,0,0,1,0-.27V31.18a1.18,1.18,0,0,0-1-1.33,1,1,0,0,0-.24,0c-1.35,0-2.71,0-4.07,0a1,1,0,0,0-1,.83,1.22,1.22,0,0,0,0,.27c0,1.43,0,2.86,0,4.29,0,.8.39,1.12,1.15,1.11h3c2.3,0,3.45,1.14,3.46,3.46,0,2,0,3.89,0,5.83,0,1.61.34,1.95,1.91,2h8.91a4.57,4.57,0,0,1,2.9,1,5.68,5.68,0,0,1,1.44,6.17c-.88,2.08-2.2,3-4.79,3-2.34,0-4.69,0-7,0a2.08,2.08,0,0,0-2.28,1.85,2.36,2.36,0,0,0,0,.46c0,2.82,0,5.65,0,8.47A1.89,1.89,0,0,0,18,70.73a1.74,1.74,0,0,0,.51,0c1.87,0,3.74,0,5.61,0a7.49,7.49,0,0,1,5.95,2.7,28,28,0,0,0,6.57,5.72,32.46,32.46,0,0,0,18.28,5.43,34.2,34.2,0,0,0,8.78-1A36.58,36.58,0,0,0,71,80.62,33.23,33.23,0,0,0,87.28,60.75ZM51.81,20.89c2.59,0,2.34-.43,2.35,2.31,0,2.23,0,2.23-2.23,2.23h-.11c-2.37,0-2.24.21-2.24-2.28s-.11-2.28,2.22-2.26Zm-18,41.7c0,.66,0,1.32,0,2,0,.94-.42,1.32-1.32,1.3-1.32,0-2.64,0-4,0-.85,0-1.28-.37-1.26-1.25,0-1.35,0-2.71,0-4.06a1.06,1.06,0,0,1,.84-1.24,1.1,1.1,0,0,1,.31,0c1.39,0,2.79,0,4.17,0a1.09,1.09,0,0,1,1.23,1,.92.92,0,0,1,0,.37c0,.66,0,1.32,0,2Zm5.44-32.78c1.76,0,1.76,0,1.76,1.73,0,1.54,0,1.54-1.65,1.54s-1.58,0-1.58-1.69,0-1.58,1.47-1.58Zm-5-.95c-3.09,0-2.67.11-2.68-2.72,0-2.55,0-2.55,2.59-2.55s2.7,0,2.7,2.64.62,2.61-2.62,2.63Z"/></g></g></g></svg>