<svg id="insta-icon" xmlns="http://www.w3.org/2000/svg" width="25.287" height="25.287" viewBox="0 0 25.287 25.287">
  <path id="Caminho_3" data-name="Caminho 3" d="M12.644,2.248a38.768,38.768,0,0,1,5.057.14,6.516,6.516,0,0,1,2.388.421A4.934,4.934,0,0,1,22.477,5.2,6.516,6.516,0,0,1,22.9,7.586c0,1.264.14,1.686.14,5.057A38.768,38.768,0,0,1,22.9,17.7a6.516,6.516,0,0,1-.421,2.388,4.934,4.934,0,0,1-2.388,2.388A6.516,6.516,0,0,1,17.7,22.9c-1.264,0-1.686.14-5.057.14a38.768,38.768,0,0,1-5.057-.14A6.516,6.516,0,0,1,5.2,22.477,4.934,4.934,0,0,1,2.81,20.089,6.516,6.516,0,0,1,2.388,17.7c0-1.264-.14-1.686-.14-5.057a38.768,38.768,0,0,1,.14-5.057A6.516,6.516,0,0,1,2.81,5.2a5.046,5.046,0,0,1,.983-1.4A2.375,2.375,0,0,1,5.2,2.81a6.516,6.516,0,0,1,2.388-.421,38.768,38.768,0,0,1,5.057-.14m0-2.248a41.509,41.509,0,0,0-5.2.14A8.673,8.673,0,0,0,4.355.7a5.5,5.5,0,0,0-2.248,1.4A5.5,5.5,0,0,0,.7,4.355,6.4,6.4,0,0,0,.14,7.446a41.509,41.509,0,0,0-.14,5.2,41.509,41.509,0,0,0,.14,5.2A8.673,8.673,0,0,0,.7,20.932a5.5,5.5,0,0,0,1.4,2.248,5.5,5.5,0,0,0,2.248,1.4,8.673,8.673,0,0,0,3.091.562,41.51,41.51,0,0,0,5.2.14,41.51,41.51,0,0,0,5.2-.14,8.673,8.673,0,0,0,3.091-.562,5.894,5.894,0,0,0,3.653-3.653,8.673,8.673,0,0,0,.562-3.091c0-1.4.14-1.826.14-5.2a41.51,41.51,0,0,0-.14-5.2,8.673,8.673,0,0,0-.562-3.091,5.5,5.5,0,0,0-1.4-2.248A5.5,5.5,0,0,0,20.932.7,8.673,8.673,0,0,0,17.841.14a41.509,41.509,0,0,0-5.2-.14m0,6.181a6.358,6.358,0,0,0-6.462,6.462,6.462,6.462,0,1,0,6.462-6.462m0,10.677a4.139,4.139,0,0,1-4.215-4.215,4.139,4.139,0,0,1,4.215-4.215,4.139,4.139,0,0,1,4.215,4.215,4.139,4.139,0,0,1-4.215,4.215m6.743-12.5A1.545,1.545,0,1,0,20.932,5.9a1.559,1.559,0,0,0-1.545-1.545" fill="#fff" fill-rule="evenodd"/>
</svg>
