<svg xmlns="http://www.w3.org/2000/svg" viewBox="0 0 492.99 277.12">
    <defs>
        <style>.cls-1{fill:#fff;}</style>
    </defs>
    <g id="Camada_2" data-name="Camada 2">
        <g id="Layer_1" data-name="Layer 1">
            <g id="logo_conecta_color" data-name="logo conecta color">
                <path class="cls-1" d="M103.3,26.14c3.24,0,6.48,0,9.71,0,3.94,0,5.48,1.5,5.5,5.31,0,6.71-.11,13.43.06,20.14.09,3.57-1.77,5.24-4.88,5.33-6.94.2-13.9.07-20.86,0-3.37,0-5-1.88-5.06-5.14-.06-6.83-.18-13.67,0-20.5.13-3.83,1.93-5.16,5.78-5.18C96.83,26.13,100.06,26.14,103.3,26.14Z" />
                <path class="cls-1" d="M40.27,186.16c-1.92,0-3.85-.14-5.76,0-3.57.31-4.66-1.48-4.55-4.72s.05-6.73,0-10.09c-.05-5.73-3.59-9.25-9.31-9.29-1.08,0-2.17-.06-3.24,0-3.37.24-4.73-1.21-4.71-4.65.06-8.19,0-8,8.28-8.26,3.75-.13,5.18.93,4.62,4.69-.59,4,.28,7.56,3.65,10.23a9,9,0,0,0,6.15,2.42c3.71-.13,7.44,0,11.16,0,2.7-.06,4,1.13,4,3.83,0,4,0,7.92,0,11.88,0,2.88-1.26,4.15-4.15,4C44.36,186.06,42.31,186.16,40.27,186.16Z" />
                <path class="cls-1" d="M59.86,73.56c9.13,0,9.18,0,9.12,9-.08,11.67,1.24,9.65-10,9.82-9.29.14-9,.52-8.87-9C50.23,72.23,48.82,73.67,59.86,73.56Z" />
                <path class="cls-1" d="M13.84,90.12c-1.08,0-2.16-.06-3.23,0-2.24.15-3.25-.91-3.49-3.08C6.05,77.61,9.06,74.87,18.45,76.73a2.42,2.42,0,0,1,2.25,2.36c.09,1.31.05,2.63.05,4C20.76,90.13,20.76,90.13,13.84,90.12Z" />
                <path class="cls-1" d="M133.68,9.48c0,7.41.92,7.05-6.86,7-6.13,0-6.2,0-6.12-6.4.1-7.17-1.53-7,6.78-7C133.68,3.08,133.68,3.08,133.68,9.48Z" />
                <path class="cls-1" d="M25.57,200.8c0,1.19,0,2.39,0,3.58.09,2.27-1,3.29-3.23,3.26-11.76-.15-9.61,1.64-10-9.31-.11-3.33,1.14-4.6,4.33-4.32.71.06,1.43,0,2.14,0C25.57,194,25.57,194,25.57,200.8Z" />
                <path class="cls-1" d="M11.73,47.29c0,5.05,0,5.05-5,5.05-5.57,0-5.57,0-5.56-5.39,0-5,0-5,5.72-5C11.73,42,11.73,42,11.73,47.29Z" />
                <path class="cls-1" d="M200.76,35.84c0,5.27,0,5.27-4.89,5.27s-5,0-5-5.38c0-5,.07-5.08,5-5.08S200.76,30.66,200.76,35.84Z" />
                <path class="cls-1" d="M66.5,5.2c.17-5.8-1-5.13,6.3-5.2,4.09,0,4.09,0,4.06,5.75,0,4.62,0,4.62-5.74,4.59C66.48,10.33,66.48,10.33,66.5,5.2Z" />
                <path class="cls-1" d="M170.41,12.79c0,4.7,0,4.7-5.14,4.7-4.78,0-4.78,0-4.78-4.92s0-5.06,5.22-5C171.47,7.6,170.28,7.29,170.41,12.79Z" />
                <path class="cls-1" d="M4.64,144.9C1,145.85.08,144.23,0,140.65c-.08-3.86,1.46-4.33,4.8-4.42,3.64-.1,4.56,1,4.63,4.56C9.5,144.65,8.11,145.69,4.64,144.9Z" />
                <path class="cls-1" d="M233.23,199a61.26,61.26,0,0,1-51.93,29.34c-33.23,0-61.32-27.45-60.65-61.83a60.66,60.66,0,0,1,109.93-34.08h54.18a105.48,105.48,0,0,0-18.29-33.06C248.35,77,225,63.61,196.79,58.7c-5.84-1-9-4.55-9.08-10.68-.05-3.09-1.45-4.61-4.57-4.6-5.53,0-11-.06-16.57,0a7.54,7.54,0,0,1-5-1.62c-4.44-3.36-8-7.09-7-13.32a33.55,33.55,0,0,0,0-5.4c0-2.14-1.08-3.37-3.28-3.39q-5.24-.06-10.45,0c-2.07,0-3,1.08-2.93,3.19.08,2.88,0,5.76,0,8.64,0,5.37,0,5.49,5.38,5.34,5.55-.17,10.71-.27,14.72,5,3.59,4.68,4.21,16.27.41,20.82-3.56,4.26-8.37,5.29-13.43,5.39-9,.17-18,0-27,0H90.62a12.58,12.58,0,0,1-9.57-3.92Q71.32,54.09,61.22,44.35a12.46,12.46,0,0,1-4-9.87c.1-4.56.06-9.12,0-13.69,0-4.13-1.35-5.43-5.32-5.45-5.76,0-11.53.05-17.29,0-3.26,0-4.89,1.26-4.84,4.67.1,6,0,12,0,18,0,4.09,1.17,5.18,5.4,5.24,5,.07,10.09.24,15.13.08,3.27-.1,5.64,1.29,7.82,3.45C63.79,52.31,69.54,57.72,75,63.39c3.37,3.5,7.46,6.63,7.06,12.5-.33,4.77-.11,9.6,0,14.4.13,5.07,2.33,7.15,7.32,7.17,2.76,0,5.52,0,8.29,0s4.21,1.54,4.35,4.2,0,5.28,0,7.92c0,5.06.73,5.94,5.75,5.93,3.1,0,4.67.81,4.29,4.3-.43,3.91,1.6,9.1-.73,11.47-2.51,2.55-7.75.48-11.77.89-3.13.32-4.22-.94-4.3-4-.12-4.5-.6-4.81-5.13-4.82-10.92,0-21.85,0-32.78,0-6.62,0-11.17-4.61-11.2-11.12,0-3.36,0-6.72,0-10.08,0-2.69-1.3-4.35-4.05-4.41-4.44-.1-8.89-.08-13.33,0-2.24,0-3.46,1.15-3.41,3.62.11,4.68.08,9.37,0,14,0,2.63,1.26,3.68,3.74,3.66,3.24,0,6.48,0,9.73,0,7.55,0,11.3,3.73,11.35,11.34,0,6.36,0,12.72,0,19.09,0,5.28,1.12,6.39,6.27,6.4,9.72,0,19.45,0,29.17,0a14.81,14.81,0,0,1,9.49,3.37c4.66,3.74,7.83,12.83,4.72,20.21-2.87,6.79-7.21,9.73-15.69,9.77-7.68,0-15.37-.07-23,.06-4.92.08-7.44,2.74-7.46,7.55q0,13.88,0,27.74c0,4.68,2.23,7,6.9,7.11,6.12.12,12.25,0,18.37.07,7.76.11,14.47,2.77,19.49,8.83A92.36,92.36,0,0,0,120,259.34c18.18,11.68,38,18,59.88,17.77,9.74-.11,19.36-.8,28.74-3.41a121.85,121.85,0,0,0,24-9.66A108.79,108.79,0,0,0,285.87,199ZM169.68,68.41c8.48.06,7.66-1.4,7.71,7.57,0,7.31,0,7.31-7.32,7.31h-.36c-7.76,0-7.34.69-7.32-7.46C162.38,67.42,162,68.35,169.68,68.41ZM110.82,205c0,2.16-.07,4.32,0,6.47.13,3.09-1.39,4.31-4.33,4.27-4.31-.05-8.63,0-12.94,0-2.79,0-4.18-1.21-4.13-4.1.08-4.43.11-8.87,0-13.3-.08-2.75,1.24-4.06,3.79-4.12,4.55-.1,9.1-.09,13.65,0,2.75,0,4.13,1.46,4,4.33C110.73,200.65,110.83,202.82,110.82,205ZM128.66,97.63c5.74,0,5.74,0,5.74,5.67,0,5,0,5-5.39,5-5.18,0-5.18,0-5.18-5.54C123.83,97.67,123.87,97.63,128.66,97.63Zm-16.49-3.12c-10.14,0-8.74.35-8.77-8.92,0-8.36,0-8.36,8.47-8.36,8.84,0,8.84,0,8.84,8.67C120.45,95,122.75,94.47,112.17,94.51Z" />
                <path class="cls-1" d="M142.5,167.71c0-21.08,16.26-36,38.5-36s38.37,14.95,38.37,36-16.13,36-38.37,36S142.5,188.78,142.5,167.71Zm56.32,0c0-12.1-7.67-19.38-17.82-19.38s-17.95,7.28-17.95,19.38,7.81,19.37,17.95,19.37S198.82,179.8,198.82,167.71Z" />
                <path class="cls-1" d="M285.09,161.6v28H270.92V163.78c0-7.91-3.64-11.54-9.91-11.54-6.81,0-11.72,4.18-11.72,13.17v24.18H235.12V140.7h13.53v5.72c3.82-4.18,9.55-6.45,16.18-6.45C276.37,140,285.09,146.7,285.09,161.6Z" />
                <path class="cls-1" d="M346.06,169.14h-37c1.36,6.09,6.54,9.81,14,9.81a16.57,16.57,0,0,0,12.27-4.72l7.54,8.18c-4.54,5.18-11.36,7.9-20.17,7.9-16.9,0-27.9-10.63-27.9-25.17S306,140,320.89,140c14.36,0,25.44,9.63,25.44,25.35C346.33,166.41,346.15,168,346.06,169.14Zm-37.16-8.27H333a11.62,11.62,0,0,0-12-10.18C314.53,150.69,309.9,154.6,308.9,160.87Z" />
                <path class="cls-1" d="M352.15,165.14c0-14.72,11.36-25.17,27.26-25.17,10.27,0,18.35,4.45,21.9,12.45l-11,5.91c-2.63-4.64-6.54-6.73-11-6.73-7.18,0-12.82,5-12.82,13.54s5.64,13.54,12.82,13.54c4.45,0,8.36-2,11-6.72l11,6c-3.55,7.82-11.63,12.36-21.9,12.36C363.51,190.31,352.15,179.86,352.15,165.14Z" />
                <path class="cls-1" d="M441.74,187.22c-2.91,2.09-7.18,3.09-11.54,3.09-11.54,0-18.26-5.9-18.26-17.54V152.69h-7.55v-10.9h7.55v-11.9h14.17v11.9h12.18v10.9H426.11v19.9c0,4.18,2.27,6.46,6.09,6.46a9.54,9.54,0,0,0,5.72-1.82Z" />
                <path class="cls-1" d="M493,161.69v27.9H479.72V183.5c-2.64,4.45-7.72,6.81-14.9,6.81-11.45,0-18.27-6.36-18.27-14.81,0-8.63,6.09-14.63,21-14.63h11.27c0-6.09-3.63-9.63-11.27-9.63a23.53,23.53,0,0,0-14.08,4.54l-5.09-9.9c5.36-3.82,13.27-5.91,21.08-5.91C484.35,140,493,146.88,493,161.69Zm-14.18,12.45v-5h-9.72c-6.64,0-8.72,2.45-8.72,5.73,0,3.54,3,5.9,8,5.9C473.09,180.77,477.18,178.59,478.81,174.14Z" />
            </g>
        </g>
    </g>
</svg>