<svg xmlns="http://www.w3.org/2000/svg" viewBox="0 0 375.67 211.18"><defs><style>.cls-1{fill:#fff;}</style></defs><g id="Camada_2" data-name="Camada 2"><g id="Layer_1" data-name="Layer 1"><g id="logo_conecta_color" data-name="logo conecta color"><path class="cls-1" d="M78.72,19.92c2.47,0,4.93,0,7.4,0,3,0,4.18,1.14,4.19,4,0,5.12-.08,10.24,0,15.35.07,2.72-1.35,4-3.71,4.06-5.3.15-10.6.06-15.9,0-2.57,0-3.84-1.44-3.86-3.92,0-5.21-.14-10.42,0-15.63.1-2.91,1.47-3.93,4.4-3.95C73.78,19.91,76.25,19.92,78.72,19.92Z"/><path class="cls-1" d="M30.69,141.86c-1.46,0-2.94-.11-4.39,0-2.72.24-3.55-1.12-3.47-3.6s0-5.12,0-7.68c0-4.37-2.74-7-7.1-7.08-.82,0-1.65,0-2.47,0-2.57.19-3.61-.92-3.59-3.54.05-6.24,0-6.08,6.31-6.3,2.86-.09,3.95.71,3.52,3.58-.45,3,.22,5.76,2.78,7.8A6.89,6.89,0,0,0,27,126.91c2.83-.1,5.67,0,8.51,0,2.06,0,3,.86,3,2.91,0,3,0,6,0,9.06,0,2.19-1,3.16-3.17,3C33.81,141.78,32.24,141.86,30.69,141.86Z"/><path class="cls-1" d="M45.62,56.05c7,0,7,0,6.94,6.84-.06,8.89.95,7.36-7.6,7.49-7.08.1-6.83.39-6.76-6.86C38.28,55,37.2,56.14,45.62,56.05Z"/><path class="cls-1" d="M10.55,68.68c-.82,0-1.65-.05-2.47,0-1.7.12-2.47-.7-2.66-2.35-.81-7.19,1.48-9.28,8.64-7.86a1.84,1.84,0,0,1,1.71,1.8c.08,1,0,2,0,3C15.82,68.68,15.82,68.68,10.55,68.68Z"/><path class="cls-1" d="M101.87,7.22c0,5.65.7,5.37-5.23,5.36-4.67,0-4.72,0-4.66-4.88.07-5.46-1.17-5.36,5.16-5.36C101.87,2.35,101.87,2.34,101.87,7.22Z"/><path class="cls-1" d="M19.48,153c0,.91,0,1.82,0,2.73.07,1.73-.78,2.51-2.46,2.49-9-.12-7.32,1.25-7.61-7.09-.09-2.55.87-3.51,3.29-3.3.55,0,1.1,0,1.64,0C19.49,147.85,19.49,147.85,19.48,153Z"/><path class="cls-1" d="M8.94,36c0,3.85,0,3.85-3.82,3.84-4.25,0-4.25,0-4.24-4.1C.88,32,.88,32,5.24,32,8.94,32,8.94,32,8.94,36Z"/><path class="cls-1" d="M153,27.31c0,4,0,4-3.72,4s-3.84,0-3.84-4.1c0-3.82.06-3.87,3.79-3.87S153,23.36,153,27.31Z"/><path class="cls-1" d="M50.67,4c.14-4.43-.74-3.92,4.81-4,3.11,0,3.11,0,3.09,4.38,0,3.52,0,3.52-4.37,3.5C50.66,7.87,50.66,7.87,50.67,4Z"/><path class="cls-1" d="M129.86,9.75c0,3.58,0,3.58-3.92,3.58-3.64,0-3.64,0-3.64-3.75s0-3.86,4-3.83C130.67,5.79,129.76,5.55,129.86,9.75Z"/><path class="cls-1" d="M3.54,110.42c-2.81.72-3.48-.51-3.54-3.24-.06-3,1.11-3.3,3.66-3.37,2.77-.07,3.47.74,3.52,3.47C7.24,110.23,6.18,111,3.54,110.42Z"/><path class="cls-1" d="M177.73,151.61a46.18,46.18,0,1,1-2-50.73H217a80.7,80.7,0,0,0-13.94-25.2c-13.81-17-31.57-27.21-53.1-31-4.45-.78-6.83-3.47-6.92-8.13,0-2.36-1.1-3.52-3.48-3.51-4.21,0-8.42-.05-12.63,0a5.75,5.75,0,0,1-3.79-1.22c-3.38-2.57-6.08-5.41-5.36-10.16a25.62,25.62,0,0,0,0-4.11A2.31,2.31,0,0,0,115.29,15q-4,0-8,0c-1.57,0-2.28.82-2.23,2.43.06,2.19,0,4.39,0,6.58,0,4.09,0,4.19,4.1,4.07s8.16-.21,11.21,3.78c2.74,3.56,3.21,12.39.31,15.86-2.7,3.24-6.37,4-10.23,4.1-6.86.13-13.72,0-20.59,0H69.05a9.62,9.62,0,0,1-7.29-3q-7.42-7.68-15.11-15.11a9.47,9.47,0,0,1-3-7.51c.07-3.48,0-7,0-10.43,0-3.15-1-4.15-4.06-4.16-4.39,0-8.78,0-13.17,0-2.49,0-3.73,1-3.69,3.57.07,4.57,0,9.14,0,13.72,0,3.11.89,3.95,4.11,4,3.85,0,7.69.18,11.53.06a7.77,7.77,0,0,1,6,2.63C48.61,39.86,53,44,57.16,48.31c2.57,2.66,5.68,5,5.38,9.52-.25,3.64-.08,7.31,0,11,.09,3.87,1.77,5.45,5.58,5.47h6.31a3,3,0,0,1,3.32,3.2c.1,2,0,4,0,6,0,3.86.55,4.53,4.38,4.52,2.36,0,3.56.62,3.27,3.28-.33,3,1.21,6.93-.56,8.74s-5.9.36-9,.67c-2.38.25-3.22-.71-3.28-3-.09-3.44-.45-3.67-3.9-3.68-8.33,0-16.66,0-25,0a8.18,8.18,0,0,1-8.54-8.47c0-2.56,0-5.12,0-7.69,0-2-1-3.31-3.08-3.36-3.38-.07-6.77-.06-10.16,0-1.7,0-2.64.87-2.59,2.76.07,3.56.05,7.13,0,10.7,0,2,1,2.8,2.85,2.79,2.47,0,4.94,0,7.41,0,5.76,0,8.61,2.84,8.66,8.64,0,4.85,0,9.7,0,14.55,0,4,.85,4.87,4.78,4.88,7.41,0,14.82,0,22.23,0a11.3,11.3,0,0,1,7.23,2.57c3.55,2.85,6,9.78,3.59,15.4-2.18,5.18-5.49,7.42-11.95,7.45-5.86,0-11.71-.05-17.57,0-3.75.06-5.67,2.09-5.68,5.76q0,10.56,0,21.13c0,3.57,1.71,5.35,5.27,5.42,4.66.09,9.33,0,14,.06,5.91.08,11,2.1,14.85,6.73a70.67,70.67,0,0,0,16.4,14.28c13.85,8.9,29,13.74,45.62,13.54,7.43-.09,14.76-.62,21.91-2.61a92.7,92.7,0,0,0,18.31-7.35,82.89,82.89,0,0,0,40.56-49.6ZM129.3,52.13c6.46,0,5.84-1.07,5.88,5.77,0,5.57,0,5.57-5.59,5.57h-.27c-5.91,0-5.59.53-5.57-5.68C123.74,51.37,123.48,52.08,129.3,52.13ZM84.45,156.2c0,1.64-.06,3.28,0,4.92.11,2.36-1,3.29-3.3,3.26-3.28,0-6.57,0-9.86,0-2.12,0-3.18-.92-3.14-3.12,0-3.38.08-6.76,0-10.13C68.1,149,69.1,148,71,148c3.47-.08,6.94-.07,10.41,0,2.09,0,3.14,1.12,3,3.31C84.38,152.9,84.45,154.55,84.45,156.2ZM98,74.4c4.37,0,4.37,0,4.37,4.32,0,3.82,0,3.82-4.1,3.82s-4,0-4-4.22C94.36,74.43,94.39,74.39,98,74.4ZM85.47,72c-7.72,0-6.65.27-6.68-6.8,0-6.37,0-6.37,6.46-6.37,6.73,0,6.73,0,6.73,6.61C91.79,72.37,93.54,72,85.47,72Z"/><path class="cls-1" d="M108.59,127.8c0-16.06,12.39-27.46,29.34-27.46s29.24,11.4,29.24,27.46-12.29,27.45-29.24,27.45S108.59,143.85,108.59,127.8Zm42.92,0c0-9.22-5.85-14.77-13.58-14.77s-13.68,5.55-13.68,14.77,5.95,14.76,13.68,14.76S151.51,137,151.51,127.8Z"/><path class="cls-1" d="M217.25,123.14v21.33h-10.8V124.8c0-6-2.77-8.79-7.55-8.79-5.19,0-8.93,3.19-8.93,10v18.42h-10.8V107.22h10.31v4.36c2.91-3.19,7.27-4.92,12.33-4.92C210.6,106.66,217.25,111.79,217.25,123.14Z"/><path class="cls-1" d="M263.71,128.89H235.53c1,4.64,5,7.48,10.66,7.48a12.64,12.64,0,0,0,9.35-3.6l5.75,6.23c-3.47,3.95-8.66,6-15.38,6-12.88,0-21.25-8.1-21.25-19.18s8.51-19.18,19.87-19.18c10.94,0,19.39,7.34,19.39,19.32C263.92,126.81,263.78,128,263.71,128.89Zm-28.32-6.3h18.35a9.3,9.3,0,0,0-18.35,0Z"/><path class="cls-1" d="M268.35,125.84c0-11.21,8.65-19.18,20.77-19.18,7.82,0,14,3.4,16.69,9.49l-8.38,4.5a9.3,9.3,0,0,0-8.38-5.12c-5.47,0-9.76,3.8-9.76,10.31s4.29,10.32,9.76,10.32a9.17,9.17,0,0,0,8.38-5.12l8.38,4.57c-2.7,5.95-8.87,9.41-16.69,9.41C277,145,268.35,137.06,268.35,125.84Z"/><path class="cls-1" d="M336.62,142.67a15.47,15.47,0,0,1-8.8,2.35c-8.79,0-13.91-4.5-13.91-13.36v-15.3h-5.75v-8.31h5.75V99h10.8v9.07H334v8.31h-9.28v15.16c0,3.19,1.73,4.92,4.64,4.92a7.29,7.29,0,0,0,4.36-1.39Z"/><path class="cls-1" d="M375.67,123.21v21.26H365.56v-4.64c-2,3.39-5.88,5.19-11.35,5.19-8.73,0-13.92-4.84-13.92-11.28s4.64-11.15,16-11.15h8.59c0-4.64-2.77-7.34-8.59-7.34a17.89,17.89,0,0,0-10.73,3.46l-3.88-7.55c4.09-2.9,10.11-4.5,16.07-4.5C369.09,106.66,375.67,111.92,375.67,123.21Zm-10.8,9.49v-3.81h-7.41c-5.06,0-6.65,1.87-6.65,4.36,0,2.7,2.29,4.5,6.1,4.5C360.51,137.75,363.62,136.09,364.87,132.7Z"/></g></g></g></svg>