<svg xmlns="http://www.w3.org/2000/svg" width="25.426" height="25" viewBox="0 0 25.426 25">
  <g id="twitter-icon" transform="translate(0.135 0)">
    <rect id="Retângulo_393" data-name="Retângulo 393" width="25" height="25" transform="translate(-0.135 0)" fill="none"/>
    <path id="Caminho_2" data-name="Caminho 2" d="M46.008,22.511A14.62,14.62,0,0,0,60.758,7.76v-.7a11.42,11.42,0,0,0,2.529-2.669,11.662,11.662,0,0,1-2.95.843,5.466,5.466,0,0,0,2.248-2.81,12.885,12.885,0,0,1-3.231,1.264A5.017,5.017,0,0,0,55.56,2a5.278,5.278,0,0,0-5.2,5.2,2.739,2.739,0,0,0,.14,1.124A14.524,14.524,0,0,1,39.826,2.843a5.38,5.38,0,0,0-.7,2.669,5.582,5.582,0,0,0,2.248,4.355,4.736,4.736,0,0,1-2.388-.7h0A5.134,5.134,0,0,0,43.2,14.222a4.331,4.331,0,0,1-1.4.14,2.391,2.391,0,0,1-.983-.14,5.322,5.322,0,0,0,4.917,3.653,10.607,10.607,0,0,1-6.462,2.248A3.889,3.889,0,0,1,38,19.982a13.26,13.26,0,0,0,8.008,2.529" transform="translate(-37.996 1.162)" fill="#fff" fill-rule="evenodd"/>
  </g>
</svg>
