<svg xmlns="http://www.w3.org/2000/svg" viewBox="0 0 131.4 105.01"><defs><style>.cls-1{fill:#fff;}</style></defs><g id="Camada_2" data-name="Camada 2"><g id="Camada_1-2" data-name="Camada 1"><path class="cls-1" d="M131.36,9.26,125.82,5l-2.4-1.85-10-.45L80.65,1.24h0L60.94.36l-8-.36L51.47,1.39,47.11,5.52,45.54,7l-.21,4.71-.16,3.58-.11,2.51L45,19.6l-.27,6.08L42.43,76.81l-.49,11.08-.16,3.52,1.68,4.43L44.66,99,47,101.47l.3.31,4.63.21,3.74.16,54.85,2.44,9.32.42,1.57-1.12,6-4.27v-.05l.32-7.28,3.38-76,.32-7ZM125.51,12l-3.77,84.53-.12,2.75-3.5-.16-68.25-3h-.15L47.25,96l.09-1.85,0-.63.14-3.26,3-66.28.28-6.09.08-1.79L51.09,10l-.48.14.49-.47.18-4,3.84.17,8.6.39h0L81.36,7l40,1.78,4.29.19Z"/><polygon class="cls-1" points="25.3 25.43 24.08 28.25 25.29 31.45 37.27 63.14 37.27 63.15 36.62 77.75 20.79 35.83 19.75 33.09 17.86 28.09 18.09 27.57 18.96 25.55 18.97 25.55 21.16 20.51 21.16 20.5 21.96 18.65 21.97 18.65 29.18 16.51 29.18 16.51 38.41 13.77 39.48 13.45 39.21 19.55 26.18 23.41 25.31 25.43 25.3 25.43"/><polygon class="cls-1" points="36.1 89.37 36.07 90.11 35.83 95.5 35.63 100.12 32.9 95.37 3.58 44.26 0.46 38.82 0 38.03 2.54 32.19 2.54 32.19 3.19 31.99 9.75 30.05 9.76 30.05 14.79 28.55 14.79 34.56 6.76 36.95 6.14 37.13 6.45 37.67 36.1 89.37"/><polygon class="cls-1" points="118.23 62.35 117.91 68.11 112.15 67.78 60.9 64.91 55.14 64.58 55.46 58.84 61.22 59.16 112.47 62.03 118.23 62.35"/><polygon class="cls-1" points="117.72 71.38 117.4 77.13 111.64 76.81 60.39 73.94 54.63 73.61 54.95 67.85 60.72 68.18 111.96 71.05 117.72 71.38"/><polygon class="cls-1" points="118.73 53.41 118.41 59.17 112.65 58.84 61.4 55.97 55.64 55.65 55.96 49.89 61.72 50.21 112.97 53.08 118.73 53.41"/><path class="cls-1" d="M116.92,14.05l-1.76-.1-48-2.69h0l-3.22-.18-5.75-.32-.07,1.14h0L58,14l-.09,1.79-.05.74-.09,1.65-.21,3.72L56.44,41.44l-.33,5.76,5.76.33,51.25,2.87,5.76.32L119.2,45,120.6,20l.07-1.29h0l.25-4.46Zm-12.23,5.09L87.23,26.39,70.45,18.05l-1.88-.94ZM63.36,21l16.82,8.36-17.7,7.36Zm1.54,21L87,32.72l23.64,11.77Zm48.83-2.35L94.07,29.8l20.68-8.61Z"/><path class="cls-1" d="M60.59,78a6.73,6.73,0,1,0,6.73,6.73A6.72,6.72,0,0,0,60.59,78Zm0,10.25a3.52,3.52,0,1,1,3.53-3.52A3.52,3.52,0,0,1,60.59,88.26Z"/></g></g></svg>