<svg xmlns="http://www.w3.org/2000/svg" viewBox="0 0 74.75 74.75"><defs><style>.cls-1{fill:#fff;}</style></defs><g id="Camada_2" data-name="Camada 2"><g id="Camada_1-2" data-name="Camada 1"><path class="cls-1" d="M37.38,0A37.38,37.38,0,1,0,74.75,37.38,37.37,37.37,0,0,0,37.38,0Zm0,71.48a34.11,34.11,0,1,1,34.1-34.1A34.11,34.11,0,0,1,37.38,71.48Z"/><path class="cls-1" d="M37.38,17.29A20.1,20.1,0,0,0,20.57,48.4l-3.23,9,9.11-3.18A20.09,20.09,0,1,0,37.38,17.29Zm0,35.5a15.33,15.33,0,0,1-4.72-.73,15.59,15.59,0,0,1-3.79-1.82L23.64,52l-1.16.4.41-1.14,1.85-5.08a15.8,15.8,0,0,1-2-3.91A15.42,15.42,0,1,1,37.38,52.79Z"/><polygon class="cls-1" points="47.55 43.46 44.47 46.03 37.87 44.9 32.7 41.58 28.37 34.88 28.13 30.96 30.18 28.03 32.07 28.03 34.96 32.75 33.4 35.56 35.97 39.24 39.9 41.39 42.36 38.93 47.32 41.34 47.55 43.46"/></g></g></svg>