<svg xmlns="http://www.w3.org/2000/svg" viewBox="0 0 36.36 36.18"><defs><style>.cls-1{fill:none;stroke:#000;stroke-miterlimit:10;}</style></defs><g id="Camada_2" data-name="Camada 2"><g id="Camada_1-2" data-name="Camada 1"><path class="cls-1" d="M24.59,5.68h3.77l7.5,7.5v22.5H14.36s0-.82,0-2.18"/><polyline class="cls-1" points="28.36 5.68 28.36 13.18 35.86 13.18"/><line class="cls-1" x1="31.36" y1="18.43" x2="24.59" y2="18.43"/><line class="cls-1" x1="31.36" y1="22.68" x2="24.59" y2="22.68"/><line class="cls-1" x1="31.36" y1="26.93" x2="24.59" y2="26.93"/><line class="cls-1" x1="31.36" y1="31.18" x2="24.59" y2="31.18"/><path class="cls-1" d="M.59.5h14L22.09,8V30.5H.59S.39.3.59.5Z"/><polyline class="cls-1" points="14.59 0.5 14.59 8 22.09 8"/><line class="cls-1" x1="3.59" y1="9" x2="9.59" y2="9"/><line class="cls-1" x1="3.59" y1="13.25" x2="17.59" y2="13.25"/><line class="cls-1" x1="3.59" y1="17.5" x2="17.59" y2="17.5"/><line class="cls-1" x1="3.59" y1="21.75" x2="17.59" y2="21.75"/><line class="cls-1" x1="3.59" y1="26" x2="17.59" y2="26"/></g></g></svg>