<svg xmlns="http://www.w3.org/2000/svg" viewBox="0 0 101 101"><defs><style>.cls-1{fill:#fff;}</style></defs><g id="Camada_2" data-name="Camada 2"><g id="Camada_1-2" data-name="Camada 1"><path class="cls-1" d="M96.12,38.74,91.38,34H85V20.12L64.84,0h-29L16.31,19.57V34H9.66L4.93,38.74,0,43.67V68.25l4.69,4.69h0v0l4.69,4.69H21V22.2L38.51,4.73H63.26l17,17v60.9l-5,5H61a10.78,10.78,0,1,0,0,5.26H76.8l3.42-3.42,1.84-1.84,2.9-2.9v-7h6.52L101,68.15V43.62ZM16.31,72.94H11.38L4.73,66.29V45.63l3.59-3.58,3.31-3.31h4.68ZM50.5,95.74A5.53,5.53,0,1,1,56,90.22,5.52,5.52,0,0,1,50.5,95.74ZM96.27,66.19l-6.75,6.75H85V38.74h4.47l6.84,6.84Z"/></g></g></svg>