<svg xmlns="http://www.w3.org/2000/svg" viewBox="0 0 101.5 95.6"><defs><style>.cls-1{fill:#fff;}</style></defs><g id="Camada_2" data-name="Camada 2"><g id="Camada_1-2" data-name="Camada 1"><polygon class="cls-1" points="72.39 90.83 72.39 95.6 40 95.59 32.13 95.59 32.13 90.82 40.14 90.82 72.39 90.83"/><rect class="cls-1" x="77.16" y="90.83" width="7.95" height="4.77"/><path class="cls-1" d="M99.26,4.77,96.74,2.19,94.59,0H83.67L78.9,4.77,41.54,42.13l-4.92,4.92L23.05,60.62,20.36,63.3l.87,2.08H25.8L1.85,89.32,0,91.18l.93,3.18,3.27-.64L22.29,90.2,31,88.5l4.52-4.26h0l1.95-1.84,3-2.78.19-6.74h0l.1-3.22H36l-.23,7.85-7,6.6L10.23,87.7l22.3-22.31H54.8l46.7-46.71V7.05Zm-2.52,12L77,36.48l-17.3.66v4.77L72,41.44l-4.87,4.87h-17v4.77H62.37l-9.54,9.55h-23L36.42,54,85.64,4.77h7L96.74,9Z"/></g></g></svg>