<svg xmlns="http://www.w3.org/2000/svg" viewBox="0 0 78 105.24"><defs><style>.cls-1{fill:#fff;}</style></defs><g id="Camada_2" data-name="Camada 2"><g id="Camada_1-2" data-name="Camada 1"><path class="cls-1" d="M22.17,91.1a3.54,3.54,0,0,1-2.5-.65,3.35,3.35,0,0,1-.6-2.42v-.69a18.46,18.46,0,0,1,.27-3.71,9.68,9.68,0,0,1,9.36-7.57h2.91a3.89,3.89,0,0,0,3.64-2.41,3.81,3.81,0,0,0-.76-4c-.72-1-1.41-2-2.07-3-.45-.67-.9-1.34-1.36-2a2.48,2.48,0,0,0-1-.79l-.18-.1a6.88,6.88,0,0,0-.66-.35,2.51,2.51,0,0,1-.64-.37,7.37,7.37,0,0,1-1.32-6.94c.08-.3.17-.3.3-.3h.07l1.16.11L29,54.75c.12-.75.22-1.48.32-2.21.22-1.53.43-3,.75-4.4a8.21,8.21,0,0,1,7.58-6.78,18.52,18.52,0,0,1,2.27-.14,10.3,10.3,0,0,1,5.41,1.35C47.66,44,49,46.24,49.68,49.89c.19,1,.3,2.1.41,3.22,0,.5.1,1,.16,1.52l.11.94.93.14a5.54,5.54,0,0,1,.9.19,5.74,5.74,0,0,1,.25,1A7.27,7.27,0,0,1,51,63c-.44.57-.66.62-.66.63l-.88-.33L49,64l-1.28,1.75c-1.05,1.44-2.07,2.84-3.11,4.24a3.4,3.4,0,0,0-.41,3.71,3.94,3.94,0,0,0,3.53,2.31c.51,0,1,0,1.54,0a22,22,0,0,1,3,.16,9.59,9.59,0,0,1,8.07,9.28c0,1,0,2.24,0,3.46a2.13,2.13,0,0,1-2.09,2.1c-.25,0-.51,0-.77,0H22.17Z"/><path class="cls-1" d="M74.51,26l-2.08-2.09-3.49-3.48H52.62V0h-26V20.43H7.81L5.57,22.67,2.24,26,0,28.24V96.79l2.88,2.88,2.69,2.7,2.87,2.87h60.5l3.49-3.49,2.08-2.08L78,96.18V29.49ZM32.19,5.57H47.05V27.86H32.19Zm40.24,88.3-5.8,5.8H10.75L5.57,94.49V30.56L10.13,26H26.62v7.43h26V26h14l5.79,5.79Z"/><circle class="cls-1" cx="39.64" cy="14.4" r="2.17"/></g></g></svg>